<svg xmlns="http://www.w3.org/2000/svg" xmlns:xlink="http://www.w3.org/1999/xlink" width="2156" height="1081" viewBox="0 0 2156 1081"><defs><clipPath id="a"><rect width="2156" height="1081" transform="translate(585 5439)" fill="#fff" stroke="#707070" stroke-width="1"/></clipPath><linearGradient id="b" x1="0.16" y1="0.222" x2="0.852" y2="0.78" gradientUnits="objectBoundingBox"><stop offset="0" stop-color="#d99619"/><stop offset="0.291" stop-color="#725c32"/><stop offset="0.527" stop-color="#50380c"/><stop offset="0.734" stop-color="#725113"/><stop offset="1" stop-color="#d99619"/></linearGradient></defs><g transform="translate(-585 -5439)" clip-path="url(#a)"><rect width="2156" height="1081" transform="translate(585 5439)" fill="#100f19"/><path d="M228.613,1033.172l68.216-20.16,38.9,67.092H224.458ZM.938,1011.936l57.8.555L69.678,1080.1H.938ZM1918.2,1028.592l65.366-17.088,46.834,61.376.1,7.225H1901.52ZM678.952,1010.905l49.366,33.558L731.9,1080.1H622.909Zm1352.383,61.968,49.386-64.9,44.451,9.178,35.885,62.95H2031.433Zm-876.886-44.892,22.689-22.108,79.873,3.82-4.56,70.411H1150.432Zm-206.011,11.775,24.223-31.615,74.634-3.163,10.426,75.126H947.893Zm-804.96-29.01,58.856-5.881,25.352,28.12-4.171,47.12H133.13Zm1590.572-6.191,79.295,53.995,6.37,21.555H1694.389Zm-471.212-.933h0Zm-4.872,5.829,5.087-5.385,81.957-2.966,16.256,79H1253.391ZM729.25,1044.394l49.813-44.879,51.129,19.439,3.051,61.15H732.84ZM500.766,1011l77.167-14.54L605.26,1080.1h-104.7Zm-94.623-2.155,77.909-12.965,15.777,14.936-.2,69.286H385.615ZM59.635,1012.2,77.78,994.469l50.593,2.238,14.193,13.785L132.181,1080.1H70.623Zm771.492,6.639,33.333-27.43,83.038,48.445-.544,40.249H834.183Zm514.768-18.108,12.613-17.777,85.307.042,50.944,91.394.134,5.714H1362.226Zm98.2-18.186h0Zm-395.9,22.09,23.185-29.072,82.122,52.45-4.015,52.091h-90.821Zm840.22-29.078v0h0Zm-74.174,82.731,30.289-87.815,43.583,5.5,29.205,52.295-16.78,51.835h-79.85ZM578.764,996l17.052-27.372,77.93,21.9,4.6,19.651L621.719,1080.1H606.241Zm1052.971-30.431,98.352,23.919,3.3,14.338-40.043,76.277h-61.11Zm-952.46,44.453-4.624-19.745,27.629-34.571,57.094,1.761L778.4,998.881l-49.676,44.755ZM1495.7,1074.4l78.689-119.751,56.348,10.423.059.074.5,114.961H1495.832Zm630.337-57.6,53.905-66.742,13.318-.859V1080.1h-31.135Zm-141.787-5.921,6.722-34.18,60.671-28.061L2062,954.5,2080,1007.4l-49.138,64.57ZM323.592,946.826h0Zm-26.036,65.589,16.734-58.191,9.475-6.956,39.21-2.357,42.29,63.618-20.62,71.575H336.8Zm-94.5-8.129,19.569-59.852,90.661,9.909-16.615,57.775-68.344,20.2Zm1531.239-.665-3.308-14.39,38.821-48.755,51.757,5.6,22.107,24.007-30.171,87.475ZM864.948,990.643l4.33-17.991,70.348-38.765,14.863,4.443,17.422,69.27-24.065,31.408ZM1889,975.652l49.055-43.143,51.987,44.052-6.7,34.063-65.28,17.066Zm49.052-43.748h0ZM.938,1011.036V935.91l52.1-4.014,24.006,62-18.107,17.694Zm2079.947-3.947-17.906-52.609,72.746-23.915,43.246,19.226-53.68,66.467Zm54.867-77.008h0Zm-961.677-1.207h0Zm3.33,76.109-2.844-75.691,72.392-5.281,15.383,79.474-5.026,5.32Zm-105.645-30.263.341-5.574,80.2-54.34,21.315,14.308,2.861,76.122-22.544,21.965Zm372.854,7.8,29.156-67.366,2.51-1.506,67.734,6.85,29.572,33.685-78.325,119.2ZM484.682,995.214l1.178-78.152,49.336-4.149,58.752,48.559,1.159,6.536-17.15,27.528-77.508,14.606Zm-120.87-50.72,14.527-15.131,101.582-16.607,5,4.1-1.179,78.168L406,1007.958ZM77.924,993.573,53.9,931.513l16.354-17.868,74.115-1.515L128.189,995.8Zm877.5-55.363,65.535-33.612,50.21,64.439-.351,5.75-23.352,29.281-74.683,3.166Zm292.418-14.551,24.43-26.857,74.164,28.026,11.329,57.576-12.621,17.789-81.914,2.964ZM779.31,998.641l-19.1-41.587,31.975-52.731,19.561-7.692,10.839,2.644,45.783,73.159-4.375,18.179-33.433,27.51Zm32.4-102.482h0Zm-215.7,71.586-1.137-6.409,43.717-65.411,38.136-1.268,24.791,60.519-27.552,34.476ZM129.083,996.116l16.278-84.194,27.159-19.613,16.12,5.855,33.138,45.856-19.6,59.956-58.935,5.889ZM1358.65,982.054l-11.3-57.4,36.121-34.833,89.289,25.319-28.979,66.96Zm579.884-50.344,1.221-20.99,62.311-30.032,36.391,20.436,12.657,46.759-60.482,27.974ZM1631.547,964.6l43.59-87.12,64.223,7.012,29.682,55.464-38.745,48.66Zm-807.99-65.516,76.5-34.67,38.88,68.816-69.906,38.521ZM702.375,954.808l-24.793-60.523,29.642-32.422,83.98,42.283-31.787,52.422Zm4.741-93.507h0ZM1844.442,969.553l-22.081-23.978,41.677-80.019,24.339-7.3,50.444,52.352-1.228,21.1-49.33,43.386ZM222.558,943.521l-32.933-45.569,93.406-47.769,39.993,96.491-9.28,6.813Zm799.033-39.607,1.561-7.505,51.247-46.454,66.476,19.069,10.891,45.037-80.021,54.219Zm-485.627,8.45,44.009-64.772,10.381-.9,47.382,48.839-43.458,65.025Zm1516.1,35.472-12.68-46.845,70.6-57.751,25.193,86.553-72.742,23.916ZM939.893,933.025l-39.119-69.239,4.865-11.982,55.283-21.477,61.291,65.986-1.542,7.412-65.838,33.767Zm1196.251-3.266-25.41-87.3,1.005-2.964,81.519-9.879V948.293l-13.471.869ZM283.776,849.542l8.149-22.034,90.627,4.334-4.912,96.917L363,944l-39.1,2.35ZM1769.9,939.581,1740.213,884.1l41.926-56.65,80.941,37.934-41.55,79.778ZM.938,824.9,50.9,840.327l18.616,72.75L53.132,930.983.938,935Zm1151.775,89.082-10.931-45.2,39.507-44.2,87.082,40.86,3.276,30.675-24.535,26.972-72.91,5.319Zm119.857-18.036-3.276-30.679L1296.9,827l80.353-3.527,5.6,65.67-36.122,34.834ZM51.846,840.241l60.63-24.413,44.41,28.761L171.9,891.63l-27.128,19.592L70.4,912.741Zm331.657-8.6L404.839,815.8l64.673,38.968,10.007,57.137L378.6,928.408Zm1190.91,122.09-29.62-33.74,35.3-83.376,43.881-21.076,12.542,5.163,37.807,56.327-43.59,87.121Zm49.552-138.688h0Zm-240.182,73.921-5.612-65.823,3.863-4.511,88.781-5.465,4.868,99.776-2.356,1.415ZM480.492,912.042l-10.046-57.356,55.739-43.16,52.879,35.757-43.982,64.731-49.534,4.167ZM406.273,806.113Zm1070.34,106.666-4.875-99.923,13.279-13.451,94.1,37.131-35.166,83.052Zm525.92-32.868-5.942-74.315,11.263-6.3,95.365,29.28,7.645,10.581-1.029,3.033-71.024,58.1Zm-113.455-22.259,20.208-42.935,37.61-17.686,48.762,8.7,5.932,74.185-62.183,29.97ZM1776.811,793.4h0ZM812.138,895.8l-11.793-95.482,63.711-11.773,40.7,62.962-4.863,11.98-77.056,34.922ZM707.59,861.034l.372-19.5L774.994,786.7l24.4,13.525L811.2,895.873l-19.325,7.6ZM961.6,829.7l18.858-43.3,82.834,20.631,10.465,42.267-51,46.235ZM172.825,891.456l-15.014-47.033,59.033-60.1,70.665,35.1,3.582,7.644-8.2,22.174L188.909,897.3ZM591.161,846.2l51.4-62.246,64.463,57.562-.373,19.611-29.825,32.622-38.3,1.274Zm1083.974,30.368L1637.5,820.5l99.2-54.714,39.678,27.866,5.121,33.125-42.051,56.82Zm-493.5-52.824-.144-25.114,33-34.882,64.866,12.086,16.774,50.645-27.478,38.095Zm600.778,2.835-5.1-32.967,67.386-42.025,63.661,62.887-20.188,42.891-24.43,7.331ZM1074.67,849.089l-10.486-42.354,34.172-56.294,3.09-.486,79.112,48.754.144,25.157-39.585,44.284ZM864.826,788.022l17.019-30.954,85.864-9.047,11.976,37.821L960.7,829.44,905.469,850.9Zm-459.5,27.013,1.39-8.693,74.869-63.954,39.569,28.06,4.523,40.317L469.9,853.949Zm121.286-4.327-4.515-40.238,63.779-29.362,55.958,37.934.2,4.107L590.3,845.8l-10.459.9Zm-321.77-75.261h0Zm1075.4,40.08,33.6-43.895,57.592,12.828,9.88,73.6-3.853,4.5-80.469,3.532Zm205.151,23.054,3.4-40.753,45.184-26.42,77.012,34.763L1623.42,814.8l-43.713,21Zm-171.75-67.456h0Zm-952.2-1.773h0Zm-248.46,85.719L110.653,755.8l27.2-26.937,66.6,7,11.774,47.772-59.015,60.083Zm529.979-31.981-.2-4.121,50.3-50.506,77.208,45.914,4.126,11.633-66.886,54.713ZM.938,823.957V728.446L109.72,755.974l2.327,59.05L51.274,839.5ZM291.909,826.6l-3.534-7.542,30.98-91.43,4.811-3.659,36.981,5.788L405.784,806.2l-1.41,8.816L382.9,830.956Zm1716.506-28.087,21.436-54.063,80.116-20.61-6.885,103.739ZM217.154,783.458l-11.8-47.891,12.057-13.2,100.906,5.42L287.6,818.444Zm1886.839,44.6,6.944-104.636.809-.9,81.513-4.919v111.1l-81.653,9.894ZM980.55,785.495l-12.011-37.933,4.971-11.25,83.217-18.836,40.73,32.656-34,56.011Zm454.535-75.019h0Zm-62.736,33.8,41.814-35.592,20.715,2.227,52.975,46.84-3.413,40.932-13.395,13.568-88.838,5.469Zm-679.2-35.921h0Zm931.214,106.365L1611.884,765.9l26.078-53.445,76.028-8.111,11.734,11.047,10.478,49.622-99.4,54.824ZM1993.5,696.3h0Zm-46.241,99.882L1935.44,695.132l57.812,1.608,35.714,47.4-21.549,54.348-11.4,6.383Zm-12.341-101.511h0Zm-832.67,54.708,46.9-55.233,58.989,7.823,5.708,61.136-32.9,34.773Zm46.7-55.714h0Zm65.81,69.221-5.708-61.141,1.912-1.814,82.885-10.09,19.257,41.235-33.583,43.877ZM775.329,785.85,771.161,774.1l38.28-83.773,40.288-2.738,31.3,69.037-17.051,31.013-64.065,11.838Zm-413.27-56.376,67.895-49.244,44.52,34.878,6.558,26.545L406.4,805.4Zm1483.228,21.4L1860.808,683l3.953-2,47.167-1.574,22.544,15.485,11.855,101.38-37.3,17.542Zm-299.544-73.4h0Zm191.405,87.511-10.46-49.539L1830.215,675.1l29.629,7.923-15.487,67.717-67.531,42.114Zm-202.665-34.342,11.648-52.764,64.207-8.087,26.78,42.274-25.954,53.189ZM481.973,741.547l-6.547-26.507,72.454-51.526,37.022,11.84.548,64.953-63.8,29.374ZM693.457,727.64l.158-19.051,72-48.627,42.929,30.084-38.1,83.379ZM1305.906,658.1h0ZM224.027,656.684h0Zm362.361,83.667-.548-65.062,37.474-20.455,21.128,2.61,48.236,51.079-.159,19.183-50.289,50.5ZM850.574,687.2,881.051,654.5l76.59,22.364,15.039,59.024-4.963,11.231-85.879,9.048ZM.938,727.513v-1.5l85.189-71.769,34.052,15.511,16.977,58.5-27.124,26.859Zm216.784-6.033,6.73-64.364,84.771-3.935,14.3,70.137-4.722,3.59Zm1157.619-85.467h0Zm120.754-.348h0Zm-438.777,81.113,1.132-77.221,8.189-4.285,59.614,11.736,22.148,46.584-47.1,55.474-3.1.488Zm9.248-81.978h0Zm369.156,75.627,60.624-74.338,13.088-1.585,35.8,43.084-11.706,53.027L1488.4,757Zm-121.747,20.31-19.338-41.408,11.64-30.9,59.26-25.034,9.474,2.988,38.411,71.72-41.7,35.494Zm680.115-34.424,55.847-65.9,23.138,7.738,37.9,83.86-.755.837-80.529,20.717ZM958.543,676.624l42.93-47.272,56.037,10.31-1.129,76.965-82.867,18.758ZM324.728,627.579h0Zm-186.684,100.4-16.934-58.356,67.7-46.205,12.454,3.9,22.277,29.5-6.785,64.9-12.109,13.258ZM1611.1,669.259l15.038-38.885,54.328-10.085L1711.31,646.2l2.364,57.273-75.779,8.085ZM324.439,723.105,310.1,652.789l14.934-24.821,43.678-10.7,58.974,49.934,1.774,12.251-68.135,49.42Zm1390.183-19.426-2.37-57.423,61.738-31.508,55.4,59.7L1726.26,714.637Zm234.239-93.052h0Zm-1303.545,46.4,51.675-51.774L758.268,623.7l6.837,35.5-71.888,48.547Zm1289.754,37.194-22.4-15.384,36.489-67.788,80.32-8.05,19.71,26.864-55.911,65.977Zm-785.805-.973-22.127-46.541,45.431-45.441,42.591,3.557-4.875,94.478-1.884,1.788Zm265.046,14.543-38.354-71.614,59.156-35.05,60.283,34.662L1434.876,710Zm95.9-73.8,18.355-28.186,67.157-13.825,29.536,38.068-15.022,38.842-64.294,8.1Zm-294.106-29.313,25.907-13.838,63.355,67.354-11.579,30.737-82.549,10.049Zm-785.7,74.74-1.783-12.311L492.984,591l15.4-.283,38.808,72.167-72.284,51.406ZM.938,588.571l68.735,23.918L85.5,653.578.938,724.821Zm2073.083,49.418,119.237-61.941V716.706l-81.442,4.915ZM548.127,662.648l-38.871-72.286,18.17-15.532L603,577.793l19.678,76.355-37.364,20.394Zm217.924-3.495-6.873-35.692,33.577-44.9,43.985-5.8L876.4,601.087l4.023,52.742-30.612,32.85-40.545,2.756Zm115.3-5.51L877.34,601.1l66.95-36.037,30.095,7.53,26.364,56.188-42.87,47.206ZM202.175,626.977,274.3,560.225l49.87,67.379-14.844,24.67-85.069,3.949Zm1628.271,47.249-55.856-60.187,4.112-29.048,60.558-31.7,20.41,8.1,4.489,118.9-3.818,1.929Zm8.789-121.437h0ZM86.424,653.381,70.582,612.255l65.2-61.193,9.679,4.089,42.653,67.637-67.585,46.126ZM1681.1,619.631l9.532-55.29,45.715-13.849,41.42,34.4-4.106,29.007-61.828,31.554Zm-438.438-29.439,5.474-11.706,86.686-28.718.814.466,29.293,82.433-58.905,24.884ZM623.6,653.962l-19.71-76.482,25.773-27.79,49.957,5.569,16.7,49.367L644.5,656.543Zm1237.013-92.533,52.644-13.068,35.072,62.272-36.55,67.9-46.686,1.559Zm-771.9-19.12h0Zm520.865-.584h0ZM369.395,616.648l28.3-69.454,23.753-9.238,70.638,52.67-64.018,75.706Zm1066.192-16.3,1.605-60.088,72.98-2.474,17.6,67.544-18.413,28.277L1496.2,635.2Zm74.948-63.025h0Zm85.9,54.067,13.522-49.257,44.272-5.516,35.488,27.564-9.524,55.24-54.2,10.063Zm-529.3,43.063,21.986-91.813,30.407-11.307,52.251,69.423-45.357,45.369Zm298.749-1.9-29.243-82.294,90.056-20.012,9.567,9.749-1.612,60.346-59.366,35.175Zm-364.251-4.093-26.342-56.14,53.347-48.574,59.527,18.861-22.006,91.9-8.242,4.312Zm-304.4-24.08-16.721-49.423,36.22-36.891,30.385,3.465,44.795,56.617-33.412,44.677Zm1216.815-56.525,20.976-30.711,97.621,27.093-3.376,57.879-80.137,8.032ZM2050.08,629.5l-19.892-27.112,3.4-58.307,28.7-30.83,130.967,29.968v31.8l-119.881,62.275ZM274.839,559.4l.736-25.711,45.878-20.678,75.287,34.062L368.49,616.4l-43.567,10.669Zm-85.8,63.131-42.592-67.54,96.35-42.133,31.837,20.776-.735,25.705-72.468,67.07Zm1322-85.1,22.112-25.467,51.918,5.141,23.982,24.739-13.52,49.253-66.922,13.777ZM.938,587.614V507.3l120.087,18.4L135.1,550.443,69.919,611.617Zm1171.7,12.749-52.385-69.6,11.027-17.428,70.478-21.063,20.693,10.428,24.84,75.4-5.545,11.86-26.2,13.993Zm-644.85-26.422,12.055-83.649,65.554,1.04,23.531,57.788L603.17,576.9Zm1209.183-24.126,8.715-42.181,50.179-24.824,19.529,6.675,23.26,63.094-60.325,31.581ZM837.384,572.1l19.452-89.147,55.572-5.227,31.243,86.648-66.767,35.939Zm107.2-7.891-31.312-86.843,6.048-5.663,94.323,5.644,14.339,45.753-53.394,48.617Zm278.828-61.583,76.251-35.49,19.04,11.093,15.627,70.749L1248.1,577.546ZM422.081,537.283l14.895-39.913,66.247-34.052,11.143,2,24.576,24.668-12.128,84.161-18.325,15.665-15.572.286ZM1654.929,536l29.644-73.153,60.18,44.673-8.7,42.119-45.734,13.855Zm-141.174-77.525h0ZM1335.292,548.99l-15.629-70.758,60.333-22.2,44.358,35.51,2.007,37.85L1336.1,549.452ZM747.978,521.141l66.5-67.853,41.45,29.442-19.454,89.155L792.7,577.662Zm1091.631,31.311-23.281-63.15,55.142-38,59.858,33.015,3.009,32.184L1913.2,547.443l-53.041,13.167ZM629.805,548.8l-23.548-57.833,35.639-42.8,45.334,9.073L715.99,517.5l-36.2,36.867Zm797.5-19.236-2.016-38.035,57.109-46.457,30.975,13.728,19.051,52.6L1510.31,536.88l-73.38,2.486ZM136.01,550.176l-14.19-24.95,18.912-82.769,85.629,23.574,15.912,46.074-96.5,42.2Zm4.346-108.289v-.006l.032-.016-.008.027Zm1445.49,74.692,32.1-78.651,63.637,16.27,2.289,7.9-29.839,73.633-44.275,5.516Zm349.406-.308-3-32.067,49.4-50.641,65.758,9.279,14.211,69.781-28.649,30.771ZM.938,506.392V464.965l68.2-38.268,70.694,15.5-18.87,82.582Zm68.121-80.174h0Zm274.468-2.934h0v0Zm685.368,99.6L1014.5,476.953l17.552-34.47,57.4-22.961,5.258,2.217,35.748,91.174-11.079,17.512-30.671,11.405Zm655.878-61.022-2.3-7.925,26.733-31.539L1768.8,418.4l26.443,63.7-49.921,24.7ZM322,512.265,343.934,423.6l20.141-8.8,8.472,2.4,63.52,79.935L421.154,537.1l-23.8,9.258Zm42.036-97.947h0ZM1533.3,511.079l-18.99-52.436,66.619-45.854,17.923,2.695,18.271,21.984L1585,516.2Zm-816.442,6.1-28.735-60.213,51.887-44.4,73.147,38.121.722,1.9-66.7,68.056Zm1345.675-4.8-14.216-69.8,35.674-37.63,109.264,28.563V542.292Zm-1819.3-.322-16-46.323,43.272-61.607,72.451,19.47-21.916,88.6-45.892,20.683Zm27.073-108.451h0Zm825.38,18.082,76.455-23.408,23.985,11.051,5.179,82.132L1131.26,512.4Zm284.9,33.653,11.194-60.221,77.043,14.995,12.946,34.284-56.966,46.34Zm-178.334,36.168-5.18-82.163,43.614-15.808,44.859,15.9,13.6,56.932-76.3,35.511ZM373.605,417.046l87.031-26.931,41.872,72.55-65.783,33.813Zm197.958-28.8h0ZM1796.19,481.963,1769.639,418l23.388-30.048,70.952,4.107,6.966,58.492-55.251,38.074Zm-876.5-11.141,13.964-80.5,38.8-7.628,58.691,59.52-17.43,34.233Zm380.412-4.48-13.629-57.068,39.453-31.838,60.526,10.188,4.463,7.053-11.248,60.513-60.5,22.258ZM539.637,489.389,515.2,464.86l56.646-76.226,37.627-11.424L641.168,447.6,605.5,490.434Zm1332.242-38.9-6.991-58.7,20.686-22.409,64.1,1.71L1980.921,433l-49.238,50.473Zm-1730.94-8.91,23.613-76.457,93.763,17.761,11.453,20.7-43.24,61.561Zm673.874,10.827-.769-2.027,41.735-91,35.743-.062,41.215,30.82L918.706,471.02l-6.188,5.792-55.934,5.262Zm40.66-93.476h0ZM642.043,447.278l-31.791-70.609,11.212-22.982L730.745,356.3l8.7,55.538L687.42,456.36Zm207.25-93.869h0Zm633.406,90.8-13.007-34.446,34.407-61.454,21.973,2.281,54.057,61.64-66.426,45.72ZM503.452,462.441l-42.073-72.9L479.3,348.175l.607-.221,90.945,40.476L514.393,464.4ZM1503.834,347.832h0ZM740.379,411.72l-8.733-55.746,8.442-10.894,109.006,8.766,5.816,5.195-41.594,90.69ZM.938,344.267l58.2.239,9.417,81.468L.938,463.916Zm1616.993,92.724-18.254-21.963,42.742-70.894,43.435-3.2,22.605,80.916-26.67,31.464ZM973.23,382.17l34.069-43.648,64.335,16.29,17.266,63.956L1031.83,441.6Zm798.3-46.6h0ZM69.488,425.85l-9.432-81.593,10.919-8.269,50.331-4.018,38.347,23.762,4.072,8.9-23.686,76.693Zm51.937-94.343h0ZM1391.7,394.189l-4.445-7.023,23.2-61.606,79.114,6.355,13.7,15.967-34.342,61.336ZM1686.734,340.6l22.105-20.229,62.343,15.583,21.085,51.466L1768.856,417.5l-59.527,3.985ZM1089.853,418.71l-17.322-64.161,32.729-39.026,53.854,5.023,12.541,76.939L1095.1,420.924ZM1981.8,432.67l-31.28-61.982,44.013-58.049,8.3.936,78.629,76.406,1.891,14.307-35.714,37.673ZM1172.6,397.5l-12.581-77.185,20.2-16.6,63,11.945-3,77.088L1196.6,408.555ZM364.517,413.983l2.425-86.918,30.564-23.642,14.143-.5,66.722,45.064-17.86,41.223-87.687,27.134Zm-93.882-10.756-11.51-20.8,22.339-80.118.243-.074L366,327.173l-2.423,86.854-20.092,8.779ZM1581.06,411.9l-54.083-61.669,66.146-50.505,48.422,44.059-42.68,70.793Zm503.206-7.818-1.878-14.218,50.26-85.136,60.61-6.464v134.31ZM741.934,296.508h0Zm499.234,96.243,3-77.211,34.17-20.821,29.989,9.547,16.946,72.521L1285.857,408.6Zm37.107-98.527h0ZM480.646,347.29l47.485-61.648,91.626,63.613.919,3.923L609.4,376.289l-37.807,11.478Zm47.385-62.274h0Zm364.245,73.721,39.879-77.6,63.235,15.4,11.214,41.38L972.35,381.8l-38.985,7.664Zm900.85,28.319-21.046-51.371,58.377-55.585,27.753,3.055,26.632,85.652L1864.2,391.17Zm-466.944-10.493-16.914-72.385,59.063-25.416,21.086,10.057,20.212,36.3-23.2,61.589ZM164.554,364.2l-3.991-8.717,61.546-79.748,5.045-1.154,53.371,27.6-22.242,79.772Zm1839.253-50.955,78.22-43.427,49.718,34.617-49.944,84.6ZM621.547,352.789,620.659,349l23.808-83.751,68.171-3.668,28.819,35.074-2.053,47.8L730.92,355.4Zm118.809-8.594,2.035-47.39,85.242-35.893,21.065,92ZM1885.72,368.477l-26.605-85.569,36.5-27.388,71.859,17.175,26.275,39.451-44.006,58.039ZM.938,343.366V254.193L53,257.112l17.28,78.255L59.4,343.605Zm848.78,9.808-21.257-92.837,1.891-3.834,85.592-2.964,15.427,27.076-39.98,77.8-35.733.062ZM1007.5,337.639l-11.21-41.369,41.727-49.084,43.087,15.637,23.405,52.162-32.664,38.949Zm701.661-18.12-2.666-62.981,88.841-12.412,34.3,35.491-58.243,55.457Zm-115.55-20.592-2.556-54.872,107.951,4.121,6.539,8.133,2.682,63.376-22.22,20.334-43.7,3.217Zm201.9-55.282h0Zm-618.074-2.779h0Zm-1055.5,90.42,13.8-91.014L221.1,275.523l-61.2,79.295ZM528.493,284.78l-.9-27.909,26.792-20.353,71.958,5.816L643.595,264.9,619.9,348.244Zm881.941,39.871-20.063-36.028,79.961-52.235,23.1,14.7-4.071,79.906Zm93.64,22.754-13.788-16.075,4.08-80.109,87.889-17.105,7.846,9.634,2.569,55.169-66.5,50.779ZM412.454,302.36l55.375-72.037,58.825,26.628.9,27.922-47.925,62.217-.615.223ZM53.9,256.849,89,228.06l36-3.994,9.865,15.653-13.851,91.366-49.846,3.98Zm1051.48,57.783-23.339-52.01,57.877-40.035,37.065,18.554,2.64,61.883-20.252,16.644ZM282.4,301.5l46.909-78.362,29.4-1.76,38.047,81.468-30.379,23.5Zm898.148,1.349-2.633-61.719,47.466-24.055,36.24,11.868,16.113,65.072-34.122,20.792Zm178.671-90.273h0Zm-999.657,8.435L381.2,200.8l79.235,15.848,6.7,13.061-55.585,72.31-13.917.494Zm919.106,72.866-16.12-65.1,41.059-31.084,55.187,15.237,9.033,65.063L1308.7,303.436Zm-565.3-32.849,22.769-64.77,79.112,16.617,14.287,43.152-1.928,3.91-85.54,36.019ZM1994.592,311.74l-26.285-39.466,39.369-77.319,45.249-3.152,24.067,13.384,4.576,63.846-78.622,43.65Zm87.918-42.7-4.573-63.817,44.748-15.428,70.573,22.159v85.4l-60.768,6.48Zm-713.735,8.926-9.054-65.214,26.576-23,68.332,8.527,15.131,37.391-80.037,52.284ZM227.74,273.858l13.642-73.728,45.881-11.406L328.432,222.8l-47.044,78.586-.262.079Zm704.473,6.361-15.488-27.181,24.753-69.729,8.479.15,85.331,56.781,2.057,6.313-41.744,49.1ZM135.678,239.265l-9.9-15.711,14.843-31.737,65.126-17.709,34.718,25.847L226.811,273.73l-4.933,1.128Zm680.456-26.72,27.09-44.475,95.431,12.88,1.955,2.012-24.734,69.676L830.389,255.6Zm222.11,33.76-2.061-6.325,32.02-73.659,59.627,10.637,11.514,44.912-57.957,40.092Zm661.481,1.3,7.109-62.865,66.328-19.854,23.868,12.674-1.978,65.7-88.844,12.413Zm130.786,31.6-34.526-35.727,1.982-65.855,38.947-13.163,56.71,44.024,1.4,46.335-36.6,27.46ZM627.1,241.809l17.333-62.329,27.106-16.816,55.924,18.771,7.864,14.338-22.819,64.908-68.178,3.668Zm963.7,1.334-7.873-9.667,1.576-29.321L1618.11,166.1l64.256-4.681,23.549,23.142-7.092,62.706ZM477.648,159.665h0Zm1418.316,95.013-1.4-46.234,52.849-49.578,18.4.518,40.99,35.247-39.283,77.149ZM468.031,229.416l-6.773-13.205,16.761-56.156,75.432-14.013.323,89.795-26.718,20.3Zm1002.679,6.128L1455.475,197.9l26.6-50.086,35.192-4.841,66.3,61.19L1582,233.25l-87.981,17.123Zm-916,.092-.324-89.968,2.623-2.836,86.461,36.621L626.24,241.418Zm962.712-93.145h0Zm-377.143,79.261-11.555-45.074,31.887-37.466,49.682,11.284,14.52,65.852-47.374,24.008ZM.938,253.289V138.435L88.13,227.594,53.223,256.22Zm286.97-65.223,15.579-60.757,77.9,3.634-.8,69.179L358.8,220.468,329.2,222.241Zm663.033-5.047,89.794-57.454,26.656,40.291-31.914,73.414Zm89.933-58.085h0ZM381.524,199.95l.8-69.245,2.421-2.279,60.039-5.137,32.345,36.482-16.7,55.96Zm844.224,16.295-14.538-65.928,39.561-27.53,43.811,22.005L1303,197,1261.933,228.1ZM.938,137.119v-6.6l47.339-13.586,65.361,15.141,26.129,59.365-14.84,31.732-35.939,3.988ZM736.15,195.339l-7.822-14.264,37.649-64.749,60.248,1.755,16.245,49.448-27.078,44.455Zm-519.7-81.968h0ZM1837.576,163.81l16.688-37.991,50.142-13.276,42.172,45.844-52.52,49.27Zm-533.652,33.03-8.408-52.12,58.422-36.318,21.532,6.327,10.174,74.375L1359.1,212.075ZM206.351,173.422l10.522-59.738,49.791-21.495,9.15,1.155,26.8,33.6L287,187.859l-45.92,11.415Zm1476.7-12.624,11.521-69.244,65.8,7.489,12.314,65.043-66.142,19.8Zm-296.485,28.08-10.153-74.23,50.264-23.133,9.705,2.69,44.831,53.247-26.513,49.93Zm40.071-97.842h0ZM2123.2,189.007l12.307-82.719,57.748-15.942V211Zm-156.638-30.177,36.816-72.042,56.644,7.134-7.431,97-45.061,3.139ZM557.405,142.015l5.473-32.237,51.357-25.155,51.028,24.146,5.722,53.167-27,16.75ZM114.529,131.78l45.149-47.537,56.259,29.371-10.506,59.643L140.551,190.9ZM1068.205,165.4l-26.85-40.585.8-9.867L1129.879,83.9l14.364,7.828,15.667,46.88-31.883,37.464Zm985.319,25.689,7.454-97.3,18.686-10.679,54.909,23.093-12.316,82.779-44.765,15.433Zm-535.5-48.673,37.151-57.1,19.049-3.687L1604.214,99l13.161,66.536-33.369,37.784ZM843.337,167.174l-16.251-49.466,13.229-19.041,61.029-17.744,25.719,14.158L938.341,180Zm761.838-68.151,70.253-21.91,8.713,2.541,9.541,11.53-11.538,69.344-63.883,4.654ZM671.914,161.835l-5.722-53.165,41.384-32.484,30.029,3.83L765.149,115.9l-37.571,64.618Zm1101.724,2.272-12.367-65.318,25.279-24.167,34.555,4.061,32.282,46.81-16.733,38.1-39.1,13.216Zm12.743-89.959h0ZM941.352,182.405l-2.022-2.081L928.01,95.077l55.143-23.032L1027,91.966l14.234,22.774-.807,9.939-90.457,57.878Zm-495.82-59.656,21.53-44.979,56.046-12.941,38.849,44.782-5.512,32.472-2.774,3-75.847,14.09Zm1501.912,35.216-42.355-46.043,10.335-34.349L1978.6,57.456l23.956,28.9-36.856,72.12ZM1160.8,138.328l-15.608-46.7,67.09-40.727,35.937,30.248,2.03,40.893-39.659,27.6ZM303.366,126.4l-26.7-33.472L313.6,49.186l62.614,11.735,7.835,66.9-2.369,2.229Zm947.818-4.418L1249.16,81.2,1318.7,46.523l34.547,61.237-58.266,36.22Zm186.136-28.09,67-48.2,49.94,39.323-37.124,57.057-35.177,4.839Zm384.659-15.579L1872.4,28.406l42.116,48.921-10.332,34.341-50.063,13.255ZM377.124,60.687l38.859-42.506,50.2,59.271L444.672,122.4l-59.723,5.111ZM416,17.485h0ZM.938.905H103.145L47.923,116.089.938,129.574ZM48.922,116.157,104.178.905h40.8l14.1,82.63L113.818,131.19ZM160,83.39,145.931.905h67.179l52.825,90.612L216.471,112.87Zm106.889,7.919-52.7-90.4H308l4.929,47.644L275.872,92.443Zm46.949-43L308.936.905H416.76l-1.221,16.4L376.464,60.049ZM416.48,17.341,417.7.905H534.6L522.875,63.959,466.911,76.882Zm107.3,46.86L535.55.905h91.119L613.8,83.824l-51.23,25.092Zm90.967,19.659L627.621.905h42.685l36.552,74.682L665.64,107.941Zm93-8.561L671.342.905H790.447l-52.815,78.2Zm58.2,40.125L738.433,79.577,791.564.905H801.58l37.92,97.32-13.172,18.956ZM802.583.905h95.212l3.123,79.2L840.307,97.725Zm99.278,79.263L898.735.905h77.377l6.556,70.362L927.531,94.3ZM983.6,71.252,977.049.905h95.842l-45.783,90.112Zm44.255,20.341L1073.934.905h28.21l27.193,82.233-87.425,30.942Zm102.454-8.484L1103.129.905h106.04l2.675,49.194-67.222,40.807Zm82.474-32.983L1210.11.905h118.834l-10.46,44.708-69.742,34.779Zm141.4,57.411-34.8-61.687L1329.906.905h72.941l23.239,89.885-50.226,23.115Zm72.832-16.861L1403.812.905h96.3l3.737,44.008-67.29,48.4ZM1504.788,44.9,1501.053.905h100.939l-28.036,79.866-18.949,3.668Zm70.09,36.062L1602.98.905h25.9l45.843,75.48-70.023,21.839Zm100.853-4.7L1629.962.905h101.372L1684.2,78.734Zm18.693,14.368-9.438-11.4L1732.421.905h30.632l22.8,73.114L1760.6,98.163Zm92.32-16.9L1764.036.905H1872.5l-.533,26.639-50.762,50.242Zm86.161-46.167L1873.44.905h109.248l-4.367,55.7L1915.2,76.7Zm130.453,58.307L1979.249,56.79,1983.632.905h104.912l-9.352,81.436-18.762,10.722Zm76.776-3.543L2089.485.905h103.773v88.5l-58.138,16.05ZM.469,0v.45H0v1080.1H.469v.451H2193.728v-.451h.469V.455h-.469V0Z" transform="translate(567.04 5438.995)" opacity="0.521" fill="url(#b)"/></g></svg>